<?xml version="1.0" encoding="UTF-8" standalone="no"?>
<!DOCTYPE svg PUBLIC "-//W3C//DTD SVG 1.1//EN"
 "http://www.w3.org/Graphics/SVG/1.1/DTD/svg11.dtd">
<!-- Generated by graphviz version 2.47.0 (20210316.0004)
 -->
<!-- Title: dependencies Pages: 1 -->
<svg width="7206pt" height="290pt"
 viewBox="0.00 0.00 7206.00 290.00" xmlns="http://www.w3.org/2000/svg" xmlns:xlink="http://www.w3.org/1999/xlink">
<g id="graph0" class="graph" transform="scale(1 1) rotate(0) translate(4 286)">
<title>dependencies</title>
<polygon fill="white" stroke="transparent" points="-4,4 -4,-286 7202,-286 7202,4 -4,4"/>
<text text-anchor="start" x="3578.01" y="-42.4" font-family="sans-serif" font-weight="bold" font-size="14.00">Legend</text>
<polygon fill="#ffffb3" stroke="transparent" points="3365,-10 3365,-30 3385,-30 3385,-10 3365,-10"/>
<text text-anchor="start" x="3388.63" y="-15.4" font-family="sans-serif" font-size="14.00"> &#160;Declarations</text>
<polygon fill="#8dd3c7" stroke="transparent" points="3478,-10 3478,-30 3498,-30 3498,-10 3478,-10"/>
<text text-anchor="start" x="3501.73" y="-15.4" font-family="sans-serif" font-size="14.00"> &#160;Module</text>
<polygon fill="#80b1d3" stroke="transparent" points="3564,-10 3564,-30 3584,-30 3584,-10 3564,-10"/>
<text text-anchor="start" x="3587.78" y="-15.4" font-family="sans-serif" font-size="14.00"> &#160;Bootstrap</text>
<polygon fill="#fdb462" stroke="transparent" points="3661,-10 3661,-30 3681,-30 3681,-10 3661,-10"/>
<text text-anchor="start" x="3684.67" y="-15.4" font-family="sans-serif" font-size="14.00"> &#160;Providers</text>
<polygon fill="#fb8072" stroke="transparent" points="3757,-10 3757,-30 3777,-30 3777,-10 3757,-10"/>
<text text-anchor="start" x="3780.73" y="-15.4" font-family="sans-serif" font-size="14.00"> &#160;Exports</text>
<g id="clust1" class="cluster">
<title>cluster_AppModule</title>
<polygon fill="none" stroke="black" stroke-dasharray="1,5" points="8,-70 8,-274 403,-274 403,-70 8,-70"/>
</g>
<g id="clust2" class="cluster">
<title>cluster_AppModule_declarations</title>
<polygon fill="none" stroke="black" points="16,-78 16,-130 138,-130 138,-78 16,-78"/>
</g>
<g id="clust4" class="cluster">
<title>cluster_AppModule_imports</title>
<polygon fill="none" stroke="black" points="146,-78 146,-130 395,-130 395,-78 146,-78"/>
</g>
<g id="clust6" class="cluster">
<title>cluster_AppModule_bootstrap</title>
<polygon fill="none" stroke="black" points="156,-214 156,-266 280,-266 280,-214 156,-214"/>
</g>
<g id="clust14" class="cluster">
<title>cluster_ClientsModule</title>
<polygon fill="none" stroke="black" stroke-dasharray="1,5" points="3734,-70 3734,-198 4472,-198 4472,-70 3734,-70"/>
</g>
<g id="clust15" class="cluster">
<title>cluster_ClientsModule_declarations</title>
<polygon fill="none" stroke="black" points="3910,-78 3910,-130 4464,-130 4464,-78 3910,-78"/>
</g>
<g id="clust19" class="cluster">
<title>cluster_ClientsModule_imports</title>
<polygon fill="none" stroke="black" points="3742,-78 3742,-130 3902,-130 3902,-78 3742,-78"/>
</g>
<g id="clust29" class="cluster">
<title>cluster_CoreModule</title>
<polygon fill="none" stroke="black" stroke-dasharray="1,5" points="411,-138 411,-206 1698,-206 1698,-138 411,-138"/>
</g>
<g id="clust30" class="cluster">
<title>cluster_CoreModule_declarations</title>
<polygon fill="none" stroke="black" points="419,-146 419,-198 815,-198 815,-146 419,-146"/>
</g>
<g id="clust35" class="cluster">
<title>cluster_CoreModule_exports</title>
<polygon fill="none" stroke="black" points="823,-146 823,-198 1690,-198 1690,-146 823,-146"/>
</g>
<g id="clust38" class="cluster">
<title>cluster_IconsModule</title>
<polygon fill="none" stroke="black" stroke-dasharray="1,5" points="4480,-70 4480,-274 5120,-274 5120,-70 4480,-70"/>
</g>
<g id="clust39" class="cluster">
<title>cluster_IconsModule_declarations</title>
<polygon fill="none" stroke="black" points="4498,-78 4498,-130 5108,-130 5108,-78 4498,-78"/>
</g>
<g id="clust45" class="cluster">
<title>cluster_IconsModule_exports</title>
<polygon fill="none" stroke="black" points="4488,-214 4488,-266 5112,-266 5112,-214 4488,-214"/>
</g>
<g id="clust48" class="cluster">
<title>cluster_LoginModule</title>
<polygon fill="none" stroke="black" stroke-dasharray="1,5" points="5128,-70 5128,-198 6067,-198 6067,-70 5128,-70"/>
</g>
<g id="clust49" class="cluster">
<title>cluster_LoginModule_declarations</title>
<polygon fill="none" stroke="black" points="5298,-78 5298,-130 6059,-130 6059,-78 5298,-78"/>
</g>
<g id="clust54" class="cluster">
<title>cluster_LoginModule_imports</title>
<polygon fill="none" stroke="black" points="5136,-78 5136,-130 5290,-130 5290,-78 5136,-78"/>
</g>
<g id="clust64" class="cluster">
<title>cluster_OrdersModule</title>
<polygon fill="none" stroke="black" stroke-dasharray="1,5" points="1706,-70 1706,-198 2717,-198 2717,-70 1706,-70"/>
</g>
<g id="clust65" class="cluster">
<title>cluster_OrdersModule_declarations</title>
<polygon fill="none" stroke="black" points="1714,-78 1714,-130 2426,-130 2426,-78 1714,-78"/>
</g>
<g id="clust70" class="cluster">
<title>cluster_OrdersModule_imports</title>
<polygon fill="none" stroke="black" points="2434,-78 2434,-130 2709,-130 2709,-78 2434,-78"/>
</g>
<g id="clust80" class="cluster">
<title>cluster_PageNotFoundModule</title>
<polygon fill="none" stroke="black" stroke-dasharray="1,5" points="6075,-70 6075,-198 6485,-198 6485,-70 6075,-70"/>
</g>
<g id="clust81" class="cluster">
<title>cluster_PageNotFoundModule_declarations</title>
<polygon fill="none" stroke="black" points="6295,-78 6295,-130 6477,-130 6477,-78 6295,-78"/>
</g>
<g id="clust83" class="cluster">
<title>cluster_PageNotFoundModule_imports</title>
<polygon fill="none" stroke="black" points="6083,-78 6083,-130 6287,-130 6287,-78 6083,-78"/>
</g>
<g id="clust93" class="cluster">
<title>cluster_SharedModule</title>
<polygon fill="none" stroke="black" stroke-dasharray="1,5" points="2725,-138 2725,-206 3726,-206 3726,-138 2725,-138"/>
</g>
<g id="clust94" class="cluster">
<title>cluster_SharedModule_declarations</title>
<polygon fill="none" stroke="black" points="3236,-146 3236,-198 3718,-198 3718,-146 3236,-146"/>
</g>
<g id="clust100" class="cluster">
<title>cluster_SharedModule_exports</title>
<polygon fill="none" stroke="black" points="2733,-146 2733,-198 3228,-198 3228,-146 2733,-146"/>
</g>
<g id="clust103" class="cluster">
<title>cluster_TemplatesModule</title>
<polygon fill="none" stroke="black" stroke-dasharray="1,5" points="6493,-70 6493,-274 6928,-274 6928,-70 6493,-70"/>
</g>
<g id="clust104" class="cluster">
<title>cluster_TemplatesModule_declarations</title>
<polygon fill="none" stroke="black" points="6505,-78 6505,-130 6917,-130 6917,-78 6505,-78"/>
</g>
<g id="clust108" class="cluster">
<title>cluster_TemplatesModule_exports</title>
<polygon fill="none" stroke="black" points="6501,-214 6501,-266 6920,-266 6920,-214 6501,-214"/>
</g>
<g id="clust111" class="cluster">
<title>cluster_UiModule</title>
<polygon fill="none" stroke="black" stroke-dasharray="1,5" points="6936,-70 6936,-274 7190,-274 7190,-70 6936,-70"/>
</g>
<g id="clust112" class="cluster">
<title>cluster_UiModule_declarations</title>
<polygon fill="none" stroke="black" points="6948,-78 6948,-130 7180,-130 7180,-78 6948,-78"/>
</g>
<g id="clust116" class="cluster">
<title>cluster_UiModule_exports</title>
<polygon fill="none" stroke="black" points="6944,-214 6944,-266 7182,-266 7182,-214 6944,-214"/>
</g>
<!-- AppComponent -->
<g id="node1" class="node">
<title>AppComponent</title>
<polygon fill="#ffffb3" stroke="black" points="129.94,-122 24.06,-122 24.06,-86 129.94,-86 129.94,-122"/>
<text text-anchor="middle" x="77" y="-99.8" font-family="Times,serif" font-size="14.00">AppComponent</text>
</g>
<!-- AppModule -->
<g id="node2" class="node">
<title>AppModule</title>
<polygon fill="#8dd3c7" stroke="black" points="259.66,-190 256.66,-194 235.66,-194 232.66,-190 176.34,-190 176.34,-154 259.66,-154 259.66,-190"/>
<text text-anchor="middle" x="218" y="-167.8" font-family="Times,serif" font-size="14.00">AppModule</text>
</g>
<!-- AppComponent&#45;&gt;AppModule -->
<g id="edge1" class="edge">
<title>AppComponent&#45;&gt;AppModule</title>
<path fill="none" stroke="black" d="M77,-122.22C77,-142.37 77,-172 77,-172 77,-172 166.08,-172 166.08,-172"/>
<polygon fill="black" stroke="black" points="166.08,-175.5 176.08,-172 166.08,-168.5 166.08,-175.5"/>
</g>
<!-- AppComponent  -->
<g id="node5" class="node">
<title>AppComponent </title>
<polygon fill="#80b1d3" stroke="black" points="272.44,-258 163.56,-258 163.56,-222 272.44,-222 272.44,-258"/>
<text text-anchor="middle" x="218" y="-235.8" font-family="Times,serif" font-size="14.00">AppComponent </text>
</g>
<!-- AppModule&#45;&gt;AppComponent  -->
<g id="edge4" class="edge">
<title>AppModule&#45;&gt;AppComponent </title>
<path fill="none" stroke="black" stroke-dasharray="1,5" d="M218,-190.22C218,-190.22 218,-211.73 218,-211.73"/>
<polygon fill="black" stroke="black" points="214.5,-211.73 218,-221.73 221.5,-211.73 214.5,-211.73"/>
</g>
<!-- AppRoutingModule -->
<g id="node3" class="node">
<title>AppRoutingModule</title>
<polygon fill="#8dd3c7" stroke="black" points="282.27,-122 279.27,-126 258.27,-126 255.27,-122 153.73,-122 153.73,-86 282.27,-86 282.27,-122"/>
<text text-anchor="middle" x="218" y="-99.8" font-family="Times,serif" font-size="14.00">AppRoutingModule</text>
</g>
<!-- AppRoutingModule&#45;&gt;AppModule -->
<g id="edge2" class="edge">
<title>AppRoutingModule&#45;&gt;AppModule</title>
<path fill="none" stroke="black" d="M218,-122.22C218,-122.22 218,-143.73 218,-143.73"/>
<polygon fill="black" stroke="black" points="214.5,-143.73 218,-153.73 221.5,-143.73 214.5,-143.73"/>
</g>
<!-- CoreModule -->
<g id="node4" class="node">
<title>CoreModule</title>
<polygon fill="#8dd3c7" stroke="black" points="387.26,-122 384.26,-126 363.26,-126 360.26,-122 300.74,-122 300.74,-86 387.26,-86 387.26,-122"/>
<text text-anchor="middle" x="344" y="-99.8" font-family="Times,serif" font-size="14.00">CoreModule</text>
</g>
<!-- CoreModule&#45;&gt;AppModule -->
<g id="edge3" class="edge">
<title>CoreModule&#45;&gt;AppModule</title>
<path fill="none" stroke="black" d="M329.54,-122.29C329.54,-144.21 329.54,-178 329.54,-178 329.54,-178 269.85,-178 269.85,-178"/>
<polygon fill="black" stroke="black" points="269.85,-174.5 259.85,-178 269.85,-181.5 269.85,-174.5"/>
</g>
<!-- FooterComponent  -->
<g id="node14" class="node">
<title>FooterComponent </title>
<polygon fill="#fb8072" stroke="black" points="1190.88,-190 1069.12,-190 1069.12,-154 1190.88,-154 1190.88,-190"/>
<text text-anchor="middle" x="1130" y="-167.8" font-family="Times,serif" font-size="14.00">FooterComponent </text>
</g>
<!-- CoreModule&#45;&gt;FooterComponent  -->
<g id="edge12" class="edge">
<title>CoreModule&#45;&gt;FooterComponent </title>
<path fill="none" stroke="black" stroke-dasharray="5,2" d="M387.38,-104C552.15,-104 1130,-104 1130,-104 1130,-104 1130,-143.78 1130,-143.78"/>
<polygon fill="black" stroke="black" points="1126.5,-143.78 1130,-153.78 1133.5,-143.78 1126.5,-143.78"/>
</g>
<!-- HeaderComponent  -->
<g id="node15" class="node">
<title>HeaderComponent </title>
<polygon fill="#fb8072" stroke="black" points="1051.74,-190 926.26,-190 926.26,-154 1051.74,-154 1051.74,-190"/>
<text text-anchor="middle" x="989" y="-167.8" font-family="Times,serif" font-size="14.00">HeaderComponent </text>
</g>
<!-- CoreModule&#45;&gt;HeaderComponent  -->
<g id="edge13" class="edge">
<title>CoreModule&#45;&gt;HeaderComponent </title>
<path fill="none" stroke="black" stroke-dasharray="5,2" d="M387.32,-108C531.94,-108 989,-108 989,-108 989,-108 989,-143.83 989,-143.83"/>
<polygon fill="black" stroke="black" points="985.5,-143.83 989,-153.83 992.5,-143.83 985.5,-143.83"/>
</g>
<!-- IconsModule  -->
<g id="node16" class="node">
<title>IconsModule </title>
<polygon fill="#fb8072" stroke="black" points="1542.87,-190 1449.13,-190 1449.13,-154 1542.87,-154 1542.87,-190"/>
<text text-anchor="middle" x="1496" y="-167.8" font-family="Times,serif" font-size="14.00">IconsModule </text>
</g>
<!-- CoreModule&#45;&gt;IconsModule  -->
<g id="edge14" class="edge">
<title>CoreModule&#45;&gt;IconsModule </title>
<path fill="none" stroke="black" stroke-dasharray="5,2" d="M387.51,-94C595.73,-94 1480.44,-94 1480.44,-94 1480.44,-94 1480.44,-143.91 1480.44,-143.91"/>
<polygon fill="black" stroke="black" points="1476.94,-143.91 1480.44,-153.91 1483.94,-143.91 1476.94,-143.91"/>
</g>
<!-- LoginModule  -->
<g id="node17" class="node">
<title>LoginModule </title>
<polygon fill="#fb8072" stroke="black" points="1431.49,-190 1334.51,-190 1334.51,-154 1431.49,-154 1431.49,-190"/>
<text text-anchor="middle" x="1383" y="-167.8" font-family="Times,serif" font-size="14.00">LoginModule </text>
</g>
<!-- CoreModule&#45;&gt;LoginModule  -->
<g id="edge15" class="edge">
<title>CoreModule&#45;&gt;LoginModule </title>
<path fill="none" stroke="black" stroke-dasharray="5,2" d="M387.32,-97C583.96,-97 1383,-97 1383,-97 1383,-97 1383,-143.84 1383,-143.84"/>
<polygon fill="black" stroke="black" points="1379.5,-143.84 1383,-153.84 1386.5,-143.84 1379.5,-143.84"/>
</g>
<!-- NavComponent  -->
<g id="node18" class="node">
<title>NavComponent </title>
<polygon fill="#fb8072" stroke="black" points="1317.15,-190 1208.85,-190 1208.85,-154 1317.15,-154 1317.15,-190"/>
<text text-anchor="middle" x="1263" y="-167.8" font-family="Times,serif" font-size="14.00">NavComponent </text>
</g>
<!-- CoreModule&#45;&gt;NavComponent  -->
<g id="edge16" class="edge">
<title>CoreModule&#45;&gt;NavComponent </title>
<path fill="none" stroke="black" stroke-dasharray="5,2" d="M387.4,-101C569.56,-101 1263,-101 1263,-101 1263,-101 1263,-143.72 1263,-143.72"/>
<polygon fill="black" stroke="black" points="1259.5,-143.72 1263,-153.72 1266.5,-143.72 1259.5,-143.72"/>
</g>
<!-- TemplatesModule  -->
<g id="node19" class="node">
<title>TemplatesModule </title>
<polygon fill="#fb8072" stroke="black" points="1681.86,-190 1560.14,-190 1560.14,-154 1681.86,-154 1681.86,-190"/>
<text text-anchor="middle" x="1621" y="-167.8" font-family="Times,serif" font-size="14.00">TemplatesModule </text>
</g>
<!-- CoreModule&#45;&gt;TemplatesModule  -->
<g id="edge17" class="edge">
<title>CoreModule&#45;&gt;TemplatesModule </title>
<path fill="none" stroke="black" stroke-dasharray="5,2" d="M387.63,-90C609.34,-90 1600.77,-90 1600.77,-90 1600.77,-90 1600.77,-143.8 1600.77,-143.8"/>
<polygon fill="black" stroke="black" points="1597.27,-143.8 1600.77,-153.8 1604.27,-143.8 1597.27,-143.8"/>
</g>
<!-- UiModule  -->
<g id="node20" class="node">
<title>UiModule </title>
<polygon fill="#fb8072" stroke="black" points="908.55,-190 831.45,-190 831.45,-154 908.55,-154 908.55,-190"/>
<text text-anchor="middle" x="870" y="-167.8" font-family="Times,serif" font-size="14.00">UiModule </text>
</g>
<!-- CoreModule&#45;&gt;UiModule  -->
<g id="edge18" class="edge">
<title>CoreModule&#45;&gt;UiModule </title>
<path fill="none" stroke="black" stroke-dasharray="5,2" d="M387.49,-112C513.52,-112 870,-112 870,-112 870,-112 870,-144 870,-144"/>
<polygon fill="black" stroke="black" points="866.5,-144 870,-154 873.5,-144 866.5,-144"/>
</g>
<!-- PageAddClientComponent -->
<g id="node6" class="node">
<title>PageAddClientComponent</title>
<polygon fill="#ffffb3" stroke="black" points="4084.37,-122 3917.63,-122 3917.63,-86 4084.37,-86 4084.37,-122"/>
<text text-anchor="middle" x="4001" y="-99.8" font-family="Times,serif" font-size="14.00">PageAddClientComponent</text>
</g>
<!-- ClientsModule -->
<g id="node9" class="node">
<title>ClientsModule</title>
<polygon fill="#8dd3c7" stroke="black" points="4143.72,-190 4140.72,-194 4119.72,-194 4116.72,-190 4044.28,-190 4044.28,-154 4143.72,-154 4143.72,-190"/>
<text text-anchor="middle" x="4094" y="-167.8" font-family="Times,serif" font-size="14.00">ClientsModule</text>
</g>
<!-- PageAddClientComponent&#45;&gt;ClientsModule -->
<g id="edge5" class="edge">
<title>PageAddClientComponent&#45;&gt;ClientsModule</title>
<path fill="none" stroke="black" d="M4064.41,-122.22C4064.41,-122.22 4064.41,-143.73 4064.41,-143.73"/>
<polygon fill="black" stroke="black" points="4060.91,-143.73 4064.41,-153.73 4067.91,-143.73 4060.91,-143.73"/>
</g>
<!-- PageEditClientComponent -->
<g id="node7" class="node">
<title>PageEditClientComponent</title>
<polygon fill="#ffffb3" stroke="black" points="4456.1,-122 4289.9,-122 4289.9,-86 4456.1,-86 4456.1,-122"/>
<text text-anchor="middle" x="4373" y="-99.8" font-family="Times,serif" font-size="14.00">PageEditClientComponent</text>
</g>
<!-- PageEditClientComponent&#45;&gt;ClientsModule -->
<g id="edge6" class="edge">
<title>PageEditClientComponent&#45;&gt;ClientsModule</title>
<path fill="none" stroke="black" d="M4373,-122.02C4373,-139.37 4373,-163 4373,-163 4373,-163 4153.88,-163 4153.88,-163"/>
<polygon fill="black" stroke="black" points="4153.88,-159.5 4143.88,-163 4153.88,-166.5 4153.88,-159.5"/>
</g>
<!-- PageListClientsComponent -->
<g id="node8" class="node">
<title>PageListClientsComponent</title>
<polygon fill="#ffffb3" stroke="black" points="4271.99,-122 4102.01,-122 4102.01,-86 4271.99,-86 4271.99,-122"/>
<text text-anchor="middle" x="4187" y="-99.8" font-family="Times,serif" font-size="14.00">PageListClientsComponent</text>
</g>
<!-- PageListClientsComponent&#45;&gt;ClientsModule -->
<g id="edge7" class="edge">
<title>PageListClientsComponent&#45;&gt;ClientsModule</title>
<path fill="none" stroke="black" d="M4122.81,-122.22C4122.81,-122.22 4122.81,-143.73 4122.81,-143.73"/>
<polygon fill="black" stroke="black" points="4119.31,-143.73 4122.81,-153.73 4126.31,-143.73 4119.31,-143.73"/>
</g>
<!-- ClientsRoutingModule -->
<g id="node10" class="node">
<title>ClientsRoutingModule</title>
<polygon fill="#8dd3c7" stroke="black" points="3894.34,-122 3891.34,-126 3870.34,-126 3867.34,-122 3749.66,-122 3749.66,-86 3894.34,-86 3894.34,-122"/>
<text text-anchor="middle" x="3822" y="-99.8" font-family="Times,serif" font-size="14.00">ClientsRoutingModule</text>
</g>
<!-- ClientsRoutingModule&#45;&gt;ClientsModule -->
<g id="edge8" class="edge">
<title>ClientsRoutingModule&#45;&gt;ClientsModule</title>
<path fill="none" stroke="black" d="M3822,-122.22C3822,-142.37 3822,-172 3822,-172 3822,-172 4034.11,-172 4034.11,-172"/>
<polygon fill="black" stroke="black" points="4034.11,-175.5 4044.11,-172 4034.11,-168.5 4034.11,-175.5"/>
</g>
<!-- FooterComponent -->
<g id="node11" class="node">
<title>FooterComponent</title>
<polygon fill="#ffffb3" stroke="black" points="806.88,-190 689.12,-190 689.12,-154 806.88,-154 806.88,-190"/>
<text text-anchor="middle" x="748" y="-167.8" font-family="Times,serif" font-size="14.00">FooterComponent</text>
</g>
<!-- FooterComponent&#45;&gt;CoreModule -->
<g id="edge9" class="edge">
<title>FooterComponent&#45;&gt;CoreModule</title>
<path fill="none" stroke="black" d="M748,-153.96C748,-137.27 748,-115 748,-115 748,-115 397.62,-115 397.62,-115"/>
<polygon fill="black" stroke="black" points="397.62,-111.5 387.62,-115 397.62,-118.5 397.62,-111.5"/>
</g>
<!-- HeaderComponent -->
<g id="node12" class="node">
<title>HeaderComponent</title>
<polygon fill="#ffffb3" stroke="black" points="670.74,-190 549.26,-190 549.26,-154 670.74,-154 670.74,-190"/>
<text text-anchor="middle" x="610" y="-167.8" font-family="Times,serif" font-size="14.00">HeaderComponent</text>
</g>
<!-- HeaderComponent&#45;&gt;CoreModule -->
<g id="edge10" class="edge">
<title>HeaderComponent&#45;&gt;CoreModule</title>
<path fill="none" stroke="black" d="M610,-153.76C610,-138.43 610,-119 610,-119 610,-119 397.33,-119 397.33,-119"/>
<polygon fill="black" stroke="black" points="397.33,-115.5 387.33,-119 397.33,-122.5 397.33,-115.5"/>
</g>
<!-- NavComponent -->
<g id="node13" class="node">
<title>NavComponent</title>
<polygon fill="#ffffb3" stroke="black" points="531.15,-190 426.85,-190 426.85,-154 531.15,-154 531.15,-190"/>
<text text-anchor="middle" x="479" y="-167.8" font-family="Times,serif" font-size="14.00">NavComponent</text>
</g>
<!-- NavComponent&#45;&gt;CoreModule -->
<g id="edge11" class="edge">
<title>NavComponent&#45;&gt;CoreModule</title>
<path fill="none" stroke="black" d="M426.83,-166C394.25,-166 358.46,-166 358.46,-166 358.46,-166 358.46,-132.27 358.46,-132.27"/>
<polygon fill="black" stroke="black" points="361.96,-132.27 358.46,-122.27 354.96,-132.27 361.96,-132.27"/>
</g>
<!-- IconCloseComponent -->
<g id="node21" class="node">
<title>IconCloseComponent</title>
<polygon fill="#ffffb3" stroke="black" points="5100.09,-122 4961.91,-122 4961.91,-86 5100.09,-86 5100.09,-122"/>
<text text-anchor="middle" x="5031" y="-99.8" font-family="Times,serif" font-size="14.00">IconCloseComponent</text>
</g>
<!-- IconsModule -->
<g id="node25" class="node">
<title>IconsModule</title>
<polygon fill="#8dd3c7" stroke="black" points="4769.87,-190 4766.87,-194 4745.87,-194 4742.87,-190 4680.13,-190 4680.13,-154 4769.87,-154 4769.87,-190"/>
<text text-anchor="middle" x="4725" y="-167.8" font-family="Times,serif" font-size="14.00">IconsModule</text>
</g>
<!-- IconCloseComponent&#45;&gt;IconsModule -->
<g id="edge19" class="edge">
<title>IconCloseComponent&#45;&gt;IconsModule</title>
<path fill="none" stroke="black" d="M5054.02,-122.28C5054.02,-143.32 5054.02,-175 5054.02,-175 5054.02,-175 4780.06,-175 4780.06,-175"/>
<polygon fill="black" stroke="black" points="4780.06,-171.5 4770.06,-175 4780.06,-178.5 4780.06,-171.5"/>
</g>
<!-- IconDeleteComponent -->
<g id="node22" class="node">
<title>IconDeleteComponent</title>
<polygon fill="#ffffb3" stroke="black" points="4944.24,-122 4801.76,-122 4801.76,-86 4944.24,-86 4944.24,-122"/>
<text text-anchor="middle" x="4873" y="-99.8" font-family="Times,serif" font-size="14.00">IconDeleteComponent</text>
</g>
<!-- IconDeleteComponent&#45;&gt;IconsModule -->
<g id="edge20" class="edge">
<title>IconDeleteComponent&#45;&gt;IconsModule</title>
<path fill="none" stroke="black" d="M4850.83,-122.03C4850.83,-141.58 4850.83,-170 4850.83,-170 4850.83,-170 4780.07,-170 4780.07,-170"/>
<polygon fill="black" stroke="black" points="4780.07,-166.5 4770.07,-170 4780.07,-173.5 4780.07,-166.5"/>
</g>
<!-- IconEditComponent -->
<g id="node23" class="node">
<title>IconEditComponent</title>
<polygon fill="#ffffb3" stroke="black" points="4783.54,-122 4654.46,-122 4654.46,-86 4783.54,-86 4783.54,-122"/>
<text text-anchor="middle" x="4719" y="-99.8" font-family="Times,serif" font-size="14.00">IconEditComponent</text>
</g>
<!-- IconEditComponent&#45;&gt;IconsModule -->
<g id="edge21" class="edge">
<title>IconEditComponent&#45;&gt;IconsModule</title>
<path fill="none" stroke="black" d="M4725,-122.22C4725,-122.22 4725,-143.73 4725,-143.73"/>
<polygon fill="black" stroke="black" points="4721.5,-143.73 4725,-153.73 4728.5,-143.73 4721.5,-143.73"/>
</g>
<!-- IconNavComponent -->
<g id="node24" class="node">
<title>IconNavComponent</title>
<polygon fill="#ffffb3" stroke="black" points="4635.53,-122 4506.47,-122 4506.47,-86 4635.53,-86 4635.53,-122"/>
<text text-anchor="middle" x="4571" y="-99.8" font-family="Times,serif" font-size="14.00">IconNavComponent</text>
</g>
<!-- IconNavComponent&#45;&gt;IconsModule -->
<g id="edge22" class="edge">
<title>IconNavComponent&#45;&gt;IconsModule</title>
<path fill="none" stroke="black" d="M4592.59,-122.22C4592.59,-142.37 4592.59,-172 4592.59,-172 4592.59,-172 4669.8,-172 4669.8,-172"/>
<polygon fill="black" stroke="black" points="4669.8,-175.5 4679.8,-172 4669.8,-168.5 4669.8,-175.5"/>
</g>
<!-- IconCloseComponent  -->
<g id="node26" class="node">
<title>IconCloseComponent </title>
<polygon fill="#fb8072" stroke="black" points="4637.59,-258 4496.41,-258 4496.41,-222 4637.59,-222 4637.59,-258"/>
<text text-anchor="middle" x="4567" y="-235.8" font-family="Times,serif" font-size="14.00">IconCloseComponent </text>
</g>
<!-- IconsModule&#45;&gt;IconCloseComponent  -->
<g id="edge23" class="edge">
<title>IconsModule&#45;&gt;IconCloseComponent </title>
<path fill="none" stroke="black" stroke-dasharray="5,2" d="M4679.78,-181C4627.76,-181 4549.41,-181 4549.41,-181 4549.41,-181 4549.41,-211.98 4549.41,-211.98"/>
<polygon fill="black" stroke="black" points="4545.91,-211.98 4549.41,-221.98 4552.91,-211.98 4545.91,-211.98"/>
</g>
<!-- IconDeleteComponent  -->
<g id="node27" class="node">
<title>IconDeleteComponent </title>
<polygon fill="#fb8072" stroke="black" points="5104.24,-258 4957.76,-258 4957.76,-222 5104.24,-222 5104.24,-258"/>
<text text-anchor="middle" x="5031" y="-235.8" font-family="Times,serif" font-size="14.00">IconDeleteComponent </text>
</g>
<!-- IconsModule&#45;&gt;IconDeleteComponent  -->
<g id="edge24" class="edge">
<title>IconsModule&#45;&gt;IconDeleteComponent </title>
<path fill="none" stroke="black" stroke-dasharray="5,2" d="M4770.15,-180C4850.05,-180 5007.98,-180 5007.98,-180 5007.98,-180 5007.98,-212 5007.98,-212"/>
<polygon fill="black" stroke="black" points="5004.48,-212 5007.98,-222 5011.48,-212 5004.48,-212"/>
</g>
<!-- IconEditComponent  -->
<g id="node28" class="node">
<title>IconEditComponent </title>
<polygon fill="#fb8072" stroke="black" points="4939.54,-258 4806.46,-258 4806.46,-222 4939.54,-222 4939.54,-258"/>
<text text-anchor="middle" x="4873" y="-235.8" font-family="Times,serif" font-size="14.00">IconEditComponent </text>
</g>
<!-- IconsModule&#45;&gt;IconEditComponent  -->
<g id="edge25" class="edge">
<title>IconsModule&#45;&gt;IconEditComponent </title>
<path fill="none" stroke="black" stroke-dasharray="5,2" d="M4770.16,-185C4820.57,-185 4895.17,-185 4895.17,-185 4895.17,-185 4895.17,-211.99 4895.17,-211.99"/>
<polygon fill="black" stroke="black" points="4891.67,-211.99 4895.17,-221.99 4898.67,-211.99 4891.67,-211.99"/>
</g>
<!-- IconNavComponent  -->
<g id="node29" class="node">
<title>IconNavComponent </title>
<polygon fill="#fb8072" stroke="black" points="4788.53,-258 4655.47,-258 4655.47,-222 4788.53,-222 4788.53,-258"/>
<text text-anchor="middle" x="4722" y="-235.8" font-family="Times,serif" font-size="14.00">IconNavComponent </text>
</g>
<!-- IconsModule&#45;&gt;IconNavComponent  -->
<g id="edge26" class="edge">
<title>IconsModule&#45;&gt;IconNavComponent </title>
<path fill="none" stroke="black" stroke-dasharray="5,2" d="M4725,-190.22C4725,-190.22 4725,-211.73 4725,-211.73"/>
<polygon fill="black" stroke="black" points="4721.5,-211.73 4725,-221.73 4728.5,-211.73 4721.5,-211.73"/>
</g>
<!-- PageForgotPasswordComponent -->
<g id="node30" class="node">
<title>PageForgotPasswordComponent</title>
<polygon fill="#ffffb3" stroke="black" points="6050.53,-122 5851.47,-122 5851.47,-86 6050.53,-86 6050.53,-122"/>
<text text-anchor="middle" x="5951" y="-99.8" font-family="Times,serif" font-size="14.00">PageForgotPasswordComponent</text>
</g>
<!-- LoginModule -->
<g id="node34" class="node">
<title>LoginModule</title>
<polygon fill="#8dd3c7" stroke="black" points="5595.49,-190 5592.49,-194 5571.49,-194 5568.49,-190 5502.51,-190 5502.51,-154 5595.49,-154 5595.49,-190"/>
<text text-anchor="middle" x="5549" y="-167.8" font-family="Times,serif" font-size="14.00">LoginModule</text>
</g>
<!-- PageForgotPasswordComponent&#45;&gt;LoginModule -->
<g id="edge27" class="edge">
<title>PageForgotPasswordComponent&#45;&gt;LoginModule</title>
<path fill="none" stroke="black" d="M5951,-122.29C5951,-144.21 5951,-178 5951,-178 5951,-178 5605.51,-178 5605.51,-178"/>
<polygon fill="black" stroke="black" points="5605.51,-174.5 5595.51,-178 5605.51,-181.5 5605.51,-174.5"/>
</g>
<!-- PageResetPasswordComponent -->
<g id="node31" class="node">
<title>PageResetPasswordComponent</title>
<polygon fill="#ffffb3" stroke="black" points="5833.8,-122 5640.2,-122 5640.2,-86 5833.8,-86 5833.8,-122"/>
<text text-anchor="middle" x="5737" y="-99.8" font-family="Times,serif" font-size="14.00">PageResetPasswordComponent</text>
</g>
<!-- PageResetPasswordComponent&#45;&gt;LoginModule -->
<g id="edge28" class="edge">
<title>PageResetPasswordComponent&#45;&gt;LoginModule</title>
<path fill="none" stroke="black" d="M5737,-122.27C5737,-140.56 5737,-166 5737,-166 5737,-166 5605.96,-166 5605.96,-166"/>
<polygon fill="black" stroke="black" points="5605.96,-162.5 5595.96,-166 5605.96,-169.5 5605.96,-162.5"/>
</g>
<!-- PageSignInComponent -->
<g id="node32" class="node">
<title>PageSignInComponent</title>
<polygon fill="#ffffb3" stroke="black" points="5621.88,-122 5476.12,-122 5476.12,-86 5621.88,-86 5621.88,-122"/>
<text text-anchor="middle" x="5549" y="-99.8" font-family="Times,serif" font-size="14.00">PageSignInComponent</text>
</g>
<!-- PageSignInComponent&#45;&gt;LoginModule -->
<g id="edge29" class="edge">
<title>PageSignInComponent&#45;&gt;LoginModule</title>
<path fill="none" stroke="black" d="M5549,-122.22C5549,-122.22 5549,-143.73 5549,-143.73"/>
<polygon fill="black" stroke="black" points="5545.5,-143.73 5549,-153.73 5552.5,-143.73 5545.5,-143.73"/>
</g>
<!-- PageSignUpComponent -->
<g id="node33" class="node">
<title>PageSignUpComponent</title>
<polygon fill="#ffffb3" stroke="black" points="5457.82,-122 5306.18,-122 5306.18,-86 5457.82,-86 5457.82,-122"/>
<text text-anchor="middle" x="5382" y="-99.8" font-family="Times,serif" font-size="14.00">PageSignUpComponent</text>
</g>
<!-- PageSignUpComponent&#45;&gt;LoginModule -->
<g id="edge30" class="edge">
<title>PageSignUpComponent&#45;&gt;LoginModule</title>
<path fill="none" stroke="black" d="M5382,-122.03C5382,-138.4 5382,-160 5382,-160 5382,-160 5492.48,-160 5492.48,-160"/>
<polygon fill="black" stroke="black" points="5492.48,-163.5 5502.48,-160 5492.48,-156.5 5492.48,-163.5"/>
</g>
<!-- LoginRoutingModule -->
<g id="node35" class="node">
<title>LoginRoutingModule</title>
<polygon fill="#8dd3c7" stroke="black" points="5282.11,-122 5279.11,-126 5258.11,-126 5255.11,-122 5143.89,-122 5143.89,-86 5282.11,-86 5282.11,-122"/>
<text text-anchor="middle" x="5213" y="-99.8" font-family="Times,serif" font-size="14.00">LoginRoutingModule</text>
</g>
<!-- LoginRoutingModule&#45;&gt;LoginModule -->
<g id="edge31" class="edge">
<title>LoginRoutingModule&#45;&gt;LoginModule</title>
<path fill="none" stroke="black" d="M5213,-122.3C5213,-140.27 5213,-165 5213,-165 5213,-165 5492.28,-165 5492.28,-165"/>
<polygon fill="black" stroke="black" points="5492.28,-168.5 5502.28,-165 5492.28,-161.5 5492.28,-168.5"/>
</g>
<!-- FormOrderComponent -->
<g id="node36" class="node">
<title>FormOrderComponent</title>
<polygon fill="#ffffb3" stroke="black" points="2418.31,-122 2273.69,-122 2273.69,-86 2418.31,-86 2418.31,-122"/>
<text text-anchor="middle" x="2346" y="-99.8" font-family="Times,serif" font-size="14.00">FormOrderComponent</text>
</g>
<!-- OrdersModule -->
<g id="node40" class="node">
<title>OrdersModule</title>
<polygon fill="#8dd3c7" stroke="black" points="2307.64,-190 2304.64,-194 2283.64,-194 2280.64,-190 2210.36,-190 2210.36,-154 2307.64,-154 2307.64,-190"/>
<text text-anchor="middle" x="2259" y="-167.8" font-family="Times,serif" font-size="14.00">OrdersModule</text>
</g>
<!-- FormOrderComponent&#45;&gt;OrdersModule -->
<g id="edge32" class="edge">
<title>FormOrderComponent&#45;&gt;OrdersModule</title>
<path fill="none" stroke="black" d="M2290.83,-122.22C2290.83,-122.22 2290.83,-143.73 2290.83,-143.73"/>
<polygon fill="black" stroke="black" points="2287.33,-143.73 2290.83,-153.73 2294.33,-143.73 2287.33,-143.73"/>
</g>
<!-- PageAddOrderComponent -->
<g id="node37" class="node">
<title>PageAddOrderComponent</title>
<polygon fill="#ffffb3" stroke="black" points="2255.79,-122 2090.21,-122 2090.21,-86 2255.79,-86 2255.79,-122"/>
<text text-anchor="middle" x="2173" y="-99.8" font-family="Times,serif" font-size="14.00">PageAddOrderComponent</text>
</g>
<!-- PageAddOrderComponent&#45;&gt;OrdersModule -->
<g id="edge33" class="edge">
<title>PageAddOrderComponent&#45;&gt;OrdersModule</title>
<path fill="none" stroke="black" d="M2232.91,-122.22C2232.91,-122.22 2232.91,-143.73 2232.91,-143.73"/>
<polygon fill="black" stroke="black" points="2229.41,-143.73 2232.91,-153.73 2236.41,-143.73 2229.41,-143.73"/>
</g>
<!-- PageEditOrderComponent -->
<g id="node38" class="node">
<title>PageEditOrderComponent</title>
<polygon fill="#ffffb3" stroke="black" points="2072.02,-122 1907.98,-122 1907.98,-86 2072.02,-86 2072.02,-122"/>
<text text-anchor="middle" x="1990" y="-99.8" font-family="Times,serif" font-size="14.00">PageEditOrderComponent</text>
</g>
<!-- PageEditOrderComponent&#45;&gt;OrdersModule -->
<g id="edge34" class="edge">
<title>PageEditOrderComponent&#45;&gt;OrdersModule</title>
<path fill="none" stroke="black" d="M1990,-122.27C1990,-140.56 1990,-166 1990,-166 1990,-166 2200.29,-166 2200.29,-166"/>
<polygon fill="black" stroke="black" points="2200.29,-169.5 2210.29,-166 2200.29,-162.5 2200.29,-169.5"/>
</g>
<!-- PageListOrdersComponent -->
<g id="node39" class="node">
<title>PageListOrdersComponent</title>
<polygon fill="#ffffb3" stroke="black" points="1890.41,-122 1721.59,-122 1721.59,-86 1890.41,-86 1890.41,-122"/>
<text text-anchor="middle" x="1806" y="-99.8" font-family="Times,serif" font-size="14.00">PageListOrdersComponent</text>
</g>
<!-- PageListOrdersComponent&#45;&gt;OrdersModule -->
<g id="edge35" class="edge">
<title>PageListOrdersComponent&#45;&gt;OrdersModule</title>
<path fill="none" stroke="black" d="M1806,-122.29C1806,-144.21 1806,-178 1806,-178 1806,-178 2200.09,-178 2200.09,-178"/>
<polygon fill="black" stroke="black" points="2200.09,-181.5 2210.09,-178 2200.09,-174.5 2200.09,-181.5"/>
</g>
<!-- OrdersRoutingModule -->
<g id="node41" class="node">
<title>OrdersRoutingModule</title>
<polygon fill="#8dd3c7" stroke="black" points="2584.25,-122 2581.25,-126 2560.25,-126 2557.25,-122 2441.75,-122 2441.75,-86 2584.25,-86 2584.25,-122"/>
<text text-anchor="middle" x="2513" y="-99.8" font-family="Times,serif" font-size="14.00">OrdersRoutingModule</text>
</g>
<!-- OrdersRoutingModule&#45;&gt;OrdersModule -->
<g id="edge36" class="edge">
<title>OrdersRoutingModule&#45;&gt;OrdersModule</title>
<path fill="none" stroke="black" d="M2513,-122.02C2513,-139.37 2513,-163 2513,-163 2513,-163 2317.67,-163 2317.67,-163"/>
<polygon fill="black" stroke="black" points="2317.67,-159.5 2307.67,-163 2317.67,-166.5 2317.67,-159.5"/>
</g>
<!-- SharedModule -->
<g id="node42" class="node">
<title>SharedModule</title>
<polygon fill="#8dd3c7" stroke="black" points="2701.42,-122 2698.42,-126 2677.42,-126 2674.42,-122 2602.58,-122 2602.58,-86 2701.42,-86 2701.42,-122"/>
<text text-anchor="middle" x="2652" y="-99.8" font-family="Times,serif" font-size="14.00">SharedModule</text>
</g>
<!-- SharedModule&#45;&gt;IconsModule  -->
<g id="edge45" class="edge">
<title>SharedModule&#45;&gt;IconsModule </title>
<path fill="none" stroke="black" stroke-dasharray="5,2" d="M2622.47,-122.2C2622.47,-128.03 2622.47,-133 2622.47,-133 2622.47,-133 1511.56,-133 1511.56,-133 1511.56,-133 1511.56,-143.87 1511.56,-143.87"/>
<polygon fill="black" stroke="black" points="1508.06,-143.87 1511.56,-153.87 1515.06,-143.87 1508.06,-143.87"/>
</g>
<!-- SharedModule&#45;&gt;TemplatesModule  -->
<g id="edge48" class="edge">
<title>SharedModule&#45;&gt;TemplatesModule </title>
<path fill="none" stroke="black" stroke-dasharray="5,2" d="M2642.16,-122.13C2642.16,-132.71 2642.16,-144 2642.16,-144 2642.16,-144 1641.23,-144 1641.23,-144 1641.23,-144 1641.23,-144.98 1641.23,-144.98"/>
<polygon fill="black" stroke="black" points="1637.73,-143.79 1641.23,-153.79 1644.73,-143.79 1637.73,-143.79"/>
</g>
<!-- SharedModule&#45;&gt;OrdersModule -->
<g id="edge37" class="edge">
<title>SharedModule&#45;&gt;OrdersModule</title>
<path fill="none" stroke="black" d="M2661.84,-122.22C2661.84,-142.37 2661.84,-172 2661.84,-172 2661.84,-172 2317.99,-172 2317.99,-172"/>
<polygon fill="black" stroke="black" points="2317.99,-168.5 2307.99,-172 2317.99,-175.5 2317.99,-168.5"/>
</g>
<!-- BtnComponent  -->
<g id="node50" class="node">
<title>BtnComponent </title>
<polygon fill="#fb8072" stroke="black" points="2963.56,-190 2858.44,-190 2858.44,-154 2963.56,-154 2963.56,-190"/>
<text text-anchor="middle" x="2911" y="-167.8" font-family="Times,serif" font-size="14.00">BtnComponent </text>
</g>
<!-- SharedModule&#45;&gt;BtnComponent  -->
<g id="edge44" class="edge">
<title>SharedModule&#45;&gt;BtnComponent </title>
<path fill="none" stroke="black" stroke-dasharray="5,2" d="M2701.33,-118C2776.47,-118 2911,-118 2911,-118 2911,-118 2911,-143.72 2911,-143.72"/>
<polygon fill="black" stroke="black" points="2907.5,-143.72 2911,-153.72 2914.5,-143.72 2907.5,-143.72"/>
</g>
<!-- StateDirective  -->
<g id="node51" class="node">
<title>StateDirective </title>
<polygon fill="#fb8072" stroke="black" points="2840.58,-190 2741.42,-190 2741.42,-154 2840.58,-154 2840.58,-190"/>
<text text-anchor="middle" x="2791" y="-167.8" font-family="Times,serif" font-size="14.00">StateDirective </text>
</g>
<!-- SharedModule&#45;&gt;StateDirective  -->
<g id="edge46" class="edge">
<title>SharedModule&#45;&gt;StateDirective </title>
<path fill="none" stroke="black" stroke-dasharray="5,2" d="M2681.53,-122.25C2681.53,-145.02 2681.53,-181 2681.53,-181 2681.53,-181 2731.39,-181 2731.39,-181"/>
<polygon fill="black" stroke="black" points="2731.39,-184.5 2741.39,-181 2731.39,-177.5 2731.39,-184.5"/>
</g>
<!-- TableLightComponent  -->
<g id="node52" class="node">
<title>TableLightComponent </title>
<polygon fill="#fb8072" stroke="black" points="3219.54,-190 3072.46,-190 3072.46,-154 3219.54,-154 3219.54,-190"/>
<text text-anchor="middle" x="3146" y="-167.8" font-family="Times,serif" font-size="14.00">TableLightComponent </text>
</g>
<!-- SharedModule&#45;&gt;TableLightComponent  -->
<g id="edge47" class="edge">
<title>SharedModule&#45;&gt;TableLightComponent </title>
<path fill="none" stroke="black" stroke-dasharray="5,2" d="M2701.63,-109C2826.9,-109 3146,-109 3146,-109 3146,-109 3146,-143.78 3146,-143.78"/>
<polygon fill="black" stroke="black" points="3142.5,-143.78 3146,-153.78 3149.5,-143.78 3142.5,-143.78"/>
</g>
<!-- TotalPipe  -->
<g id="node53" class="node">
<title>TotalPipe </title>
<polygon fill="#fb8072" stroke="black" points="3054.94,-190 2981.06,-190 2981.06,-154 3054.94,-154 3054.94,-190"/>
<text text-anchor="middle" x="3018" y="-167.8" font-family="Times,serif" font-size="14.00">TotalPipe </text>
</g>
<!-- SharedModule&#45;&gt;TotalPipe  -->
<g id="edge49" class="edge">
<title>SharedModule&#45;&gt;TotalPipe </title>
<path fill="none" stroke="black" stroke-dasharray="5,2" d="M2701.36,-113C2801.26,-113 3018,-113 3018,-113 3018,-113 3018,-143.98 3018,-143.98"/>
<polygon fill="black" stroke="black" points="3014.5,-143.98 3018,-153.98 3021.5,-143.98 3014.5,-143.98"/>
</g>
<!-- PageNotFoundComponent -->
<g id="node43" class="node">
<title>PageNotFoundComponent</title>
<polygon fill="#ffffb3" stroke="black" points="6468.82,-122 6303.18,-122 6303.18,-86 6468.82,-86 6468.82,-122"/>
<text text-anchor="middle" x="6386" y="-99.8" font-family="Times,serif" font-size="14.00">PageNotFoundComponent</text>
</g>
<!-- PageNotFoundModule -->
<g id="node44" class="node">
<title>PageNotFoundModule</title>
<polygon fill="#8dd3c7" stroke="black" points="6356.54,-190 6353.54,-194 6332.54,-194 6329.54,-190 6213.46,-190 6213.46,-154 6356.54,-154 6356.54,-190"/>
<text text-anchor="middle" x="6285" y="-167.8" font-family="Times,serif" font-size="14.00">PageNotFoundModule</text>
</g>
<!-- PageNotFoundComponent&#45;&gt;PageNotFoundModule -->
<g id="edge38" class="edge">
<title>PageNotFoundComponent&#45;&gt;PageNotFoundModule</title>
<path fill="none" stroke="black" d="M6330.05,-122.22C6330.05,-122.22 6330.05,-143.73 6330.05,-143.73"/>
<polygon fill="black" stroke="black" points="6326.55,-143.73 6330.05,-153.73 6333.55,-143.73 6326.55,-143.73"/>
</g>
<!-- PageNotFoundRoutingModule -->
<g id="node45" class="node">
<title>PageNotFoundRoutingModule</title>
<polygon fill="#8dd3c7" stroke="black" points="6279.16,-122 6276.16,-126 6255.16,-126 6252.16,-122 6090.84,-122 6090.84,-86 6279.16,-86 6279.16,-122"/>
<text text-anchor="middle" x="6185" y="-99.8" font-family="Times,serif" font-size="14.00">PageNotFoundRoutingModule</text>
</g>
<!-- PageNotFoundRoutingModule&#45;&gt;PageNotFoundModule -->
<g id="edge39" class="edge">
<title>PageNotFoundRoutingModule&#45;&gt;PageNotFoundModule</title>
<path fill="none" stroke="black" d="M6246.28,-122.22C6246.28,-122.22 6246.28,-143.73 6246.28,-143.73"/>
<polygon fill="black" stroke="black" points="6242.78,-143.73 6246.28,-153.73 6249.78,-143.73 6242.78,-143.73"/>
</g>
<!-- BtnComponent -->
<g id="node46" class="node">
<title>BtnComponent</title>
<polygon fill="#ffffb3" stroke="black" points="3459.56,-190 3358.44,-190 3358.44,-154 3459.56,-154 3459.56,-190"/>
<text text-anchor="middle" x="3409" y="-167.8" font-family="Times,serif" font-size="14.00">BtnComponent</text>
</g>
<!-- BtnComponent&#45;&gt;SharedModule -->
<g id="edge40" class="edge">
<title>BtnComponent&#45;&gt;SharedModule</title>
<path fill="none" stroke="black" d="M3409,-153.83C3409,-132.5 3409,-100 3409,-100 3409,-100 2711.38,-100 2711.38,-100"/>
<polygon fill="black" stroke="black" points="2711.38,-96.5 2701.38,-100 2711.38,-103.5 2711.38,-96.5"/>
</g>
<!-- StateDirective -->
<g id="node47" class="node">
<title>StateDirective</title>
<polygon fill="#ffffb3" stroke="black" points="3340.08,-190 3243.92,-190 3243.92,-154 3340.08,-154 3340.08,-190"/>
<text text-anchor="middle" x="3292" y="-167.8" font-family="Times,serif" font-size="14.00">StateDirective</text>
</g>
<!-- StateDirective&#45;&gt;SharedModule -->
<g id="edge41" class="edge">
<title>StateDirective&#45;&gt;SharedModule</title>
<path fill="none" stroke="black" d="M3292,-153.78C3292,-133.63 3292,-104 3292,-104 3292,-104 2711.42,-104 2711.42,-104"/>
<polygon fill="black" stroke="black" points="2711.42,-100.5 2701.42,-104 2711.42,-107.5 2711.42,-100.5"/>
</g>
<!-- TableLightComponent -->
<g id="node48" class="node">
<title>TableLightComponent</title>
<polygon fill="#ffffb3" stroke="black" points="3709.54,-190 3566.46,-190 3566.46,-154 3709.54,-154 3709.54,-190"/>
<text text-anchor="middle" x="3638" y="-167.8" font-family="Times,serif" font-size="14.00">TableLightComponent</text>
</g>
<!-- TableLightComponent&#45;&gt;SharedModule -->
<g id="edge42" class="edge">
<title>TableLightComponent&#45;&gt;SharedModule</title>
<path fill="none" stroke="black" d="M3638,-153.62C3638,-129.72 3638,-91 3638,-91 3638,-91 2711.23,-91 2711.23,-91"/>
<polygon fill="black" stroke="black" points="2711.23,-87.5 2701.23,-91 2711.23,-94.5 2711.23,-87.5"/>
</g>
<!-- TotalPipe -->
<g id="node49" class="node">
<title>TotalPipe</title>
<polygon fill="#ffffb3" stroke="black" points="3548.44,-190 3477.56,-190 3477.56,-154 3548.44,-154 3548.44,-190"/>
<text text-anchor="middle" x="3513" y="-167.8" font-family="Times,serif" font-size="14.00">TotalPipe</text>
</g>
<!-- TotalPipe&#45;&gt;SharedModule -->
<g id="edge43" class="edge">
<title>TotalPipe&#45;&gt;SharedModule</title>
<path fill="none" stroke="black" d="M3513,-153.75C3513,-130.98 3513,-95 3513,-95 3513,-95 2711.38,-95 2711.38,-95"/>
<polygon fill="black" stroke="black" points="2711.38,-91.5 2701.38,-95 2711.38,-98.5 2711.38,-91.5"/>
</g>
<!-- TemplateContainerComponent -->
<g id="node54" class="node">
<title>TemplateContainerComponent</title>
<polygon fill="#ffffb3" stroke="black" points="6908.91,-122 6719.09,-122 6719.09,-86 6908.91,-86 6908.91,-122"/>
<text text-anchor="middle" x="6814" y="-99.8" font-family="Times,serif" font-size="14.00">TemplateContainerComponent</text>
</g>
<!-- TemplatesModule -->
<g id="node56" class="node">
<title>TemplatesModule</title>
<polygon fill="#8dd3c7" stroke="black" points="6666.86,-190 6663.86,-194 6642.86,-194 6639.86,-190 6549.14,-190 6549.14,-154 6666.86,-154 6666.86,-190"/>
<text text-anchor="middle" x="6608" y="-167.8" font-family="Times,serif" font-size="14.00">TemplatesModule</text>
</g>
<!-- TemplateContainerComponent&#45;&gt;TemplatesModule -->
<g id="edge50" class="edge">
<title>TemplateContainerComponent&#45;&gt;TemplatesModule</title>
<path fill="none" stroke="black" d="M6845.78,-122.27C6845.78,-140.56 6845.78,-166 6845.78,-166 6845.78,-166 6677.08,-166 6677.08,-166"/>
<polygon fill="black" stroke="black" points="6677.08,-162.5 6667.08,-166 6677.08,-169.5 6677.08,-162.5"/>
</g>
<!-- TemplateFullwidthComponent -->
<g id="node55" class="node">
<title>TemplateFullwidthComponent</title>
<polygon fill="#ffffb3" stroke="black" points="6701.15,-122 6512.85,-122 6512.85,-86 6701.15,-86 6701.15,-122"/>
<text text-anchor="middle" x="6607" y="-99.8" font-family="Times,serif" font-size="14.00">TemplateFullwidthComponent</text>
</g>
<!-- TemplateFullwidthComponent&#45;&gt;TemplatesModule -->
<g id="edge51" class="edge">
<title>TemplateFullwidthComponent&#45;&gt;TemplatesModule</title>
<path fill="none" stroke="black" d="M6608,-122.22C6608,-122.22 6608,-143.73 6608,-143.73"/>
<polygon fill="black" stroke="black" points="6604.5,-143.73 6608,-153.73 6611.5,-143.73 6604.5,-143.73"/>
</g>
<!-- TemplateContainerComponent  -->
<g id="node57" class="node">
<title>TemplateContainerComponent </title>
<polygon fill="#fb8072" stroke="black" points="6701.41,-258 6508.59,-258 6508.59,-222 6701.41,-222 6701.41,-258"/>
<text text-anchor="middle" x="6605" y="-235.8" font-family="Times,serif" font-size="14.00">TemplateContainerComponent </text>
</g>
<!-- TemplatesModule&#45;&gt;TemplateContainerComponent  -->
<g id="edge52" class="edge">
<title>TemplatesModule&#45;&gt;TemplateContainerComponent </title>
<path fill="none" stroke="black" stroke-dasharray="5,2" d="M6608,-190.22C6608,-190.22 6608,-211.73 6608,-211.73"/>
<polygon fill="black" stroke="black" points="6604.5,-211.73 6608,-221.73 6611.5,-211.73 6604.5,-211.73"/>
</g>
<!-- TemplateFullwidthComponent  -->
<g id="node58" class="node">
<title>TemplateFullwidthComponent </title>
<polygon fill="#fb8072" stroke="black" points="6912.15,-258 6719.85,-258 6719.85,-222 6912.15,-222 6912.15,-258"/>
<text text-anchor="middle" x="6816" y="-235.8" font-family="Times,serif" font-size="14.00">TemplateFullwidthComponent </text>
</g>
<!-- TemplatesModule&#45;&gt;TemplateFullwidthComponent  -->
<g id="edge53" class="edge">
<title>TemplatesModule&#45;&gt;TemplateFullwidthComponent </title>
<path fill="none" stroke="black" stroke-dasharray="5,2" d="M6667.2,-178C6717.92,-178 6782.85,-178 6782.85,-178 6782.85,-178 6782.85,-211.73 6782.85,-211.73"/>
<polygon fill="black" stroke="black" points="6779.35,-211.73 6782.85,-221.73 6786.35,-211.73 6779.35,-211.73"/>
</g>
<!-- Ui2Component -->
<g id="node59" class="node">
<title>Ui2Component</title>
<polygon fill="#ffffb3" stroke="black" points="7172.33,-122 7069.67,-122 7069.67,-86 7172.33,-86 7172.33,-122"/>
<text text-anchor="middle" x="7121" y="-99.8" font-family="Times,serif" font-size="14.00">Ui2Component</text>
</g>
<!-- UiModule -->
<g id="node61" class="node">
<title>UiModule</title>
<polygon fill="#8dd3c7" stroke="black" points="7042.55,-190 7039.55,-194 7018.55,-194 7015.55,-190 6969.45,-190 6969.45,-154 7042.55,-154 7042.55,-190"/>
<text text-anchor="middle" x="7006" y="-167.8" font-family="Times,serif" font-size="14.00">UiModule</text>
</g>
<!-- Ui2Component&#45;&gt;UiModule -->
<g id="edge54" class="edge">
<title>Ui2Component&#45;&gt;UiModule</title>
<path fill="none" stroke="black" d="M7139.97,-122.27C7139.97,-140.56 7139.97,-166 7139.97,-166 7139.97,-166 7052.61,-166 7052.61,-166"/>
<polygon fill="black" stroke="black" points="7052.61,-162.5 7042.61,-166 7052.61,-169.5 7052.61,-162.5"/>
</g>
<!-- UiComponent -->
<g id="node60" class="node">
<title>UiComponent</title>
<polygon fill="#ffffb3" stroke="black" points="7051.83,-122 6956.17,-122 6956.17,-86 7051.83,-86 7051.83,-122"/>
<text text-anchor="middle" x="7004" y="-99.8" font-family="Times,serif" font-size="14.00">UiComponent</text>
</g>
<!-- UiComponent&#45;&gt;UiModule -->
<g id="edge55" class="edge">
<title>UiComponent&#45;&gt;UiModule</title>
<path fill="none" stroke="black" d="M7006,-122.22C7006,-122.22 7006,-143.73 7006,-143.73"/>
<polygon fill="black" stroke="black" points="7002.5,-143.73 7006,-153.73 7009.5,-143.73 7002.5,-143.73"/>
</g>
<!-- Ui2Component  -->
<g id="node62" class="node">
<title>Ui2Component </title>
<polygon fill="#fb8072" stroke="black" points="7057.83,-258 6952.17,-258 6952.17,-222 7057.83,-222 7057.83,-258"/>
<text text-anchor="middle" x="7005" y="-235.8" font-family="Times,serif" font-size="14.00">Ui2Component </text>
</g>
<!-- UiModule&#45;&gt;Ui2Component  -->
<g id="edge56" class="edge">
<title>UiModule&#45;&gt;Ui2Component </title>
<path fill="none" stroke="black" stroke-dasharray="5,2" d="M7006,-190.22C7006,-190.22 7006,-211.73 7006,-211.73"/>
<polygon fill="black" stroke="black" points="7002.5,-211.73 7006,-221.73 7009.5,-211.73 7002.5,-211.73"/>
</g>
<!-- UiComponent  -->
<g id="node63" class="node">
<title>UiComponent </title>
<polygon fill="#fb8072" stroke="black" points="7174.33,-258 7075.67,-258 7075.67,-222 7174.33,-222 7174.33,-258"/>
<text text-anchor="middle" x="7125" y="-235.8" font-family="Times,serif" font-size="14.00">UiComponent </text>
</g>
<!-- UiModule&#45;&gt;UiComponent  -->
<g id="edge57" class="edge">
<title>UiModule&#45;&gt;UiComponent </title>
<path fill="none" stroke="black" stroke-dasharray="5,2" d="M7042.74,-178C7071.9,-178 7107.78,-178 7107.78,-178 7107.78,-178 7107.78,-211.73 7107.78,-211.73"/>
<polygon fill="black" stroke="black" points="7104.28,-211.73 7107.78,-221.73 7111.28,-211.73 7104.28,-211.73"/>
</g>
</g>
</svg>
